#!OML:ASF X:\für Bonn\!DataBase\2005_08_12_Daniel\c3d\Daniel.ASF
:FULLY-SPECIFIED
:DEGREES
16
root -4.18203 17.1508 -0.982664 267.65 -89.2765 -277.143
lowerback 19.9142 -2.07831 2.26719
upperback 0.181408 -2.57234 -2.31779
thorax -11.225 -1.44667 -3.10228
lowerneck 4.18798 2.40603 -2.26914
upperneck 2.04231 3.06918 0.492025
head -0.105699 1.50156 0.478344
rclavicle 2.29689e-014 1.07344e-014
rhumerus 69.8006 -28.536 -166.395
rradius 9.32225
rwrist 134.412
rhand -20.8793 12.5932
rfingers 7.12502
rthumb 5.49093 -17.3157
lclavicle 2.29689e-014 1.07344e-014
lhumerus 58.3524 14.5964 114.784
lradius 8.24733
lwrist -90.9745
lhand -14.5796 2.50839
lfingers 7.12502
lthumb 11.5702 32.169
rfemur 5.19694 11.8747 18.5418
rtibia 23.5136
rfoot 331.822 -17.8499
rtoes -11.8434
lfemur -184.075 191.839 -198.473
ltibia 35.9337
lfoot -26.8753 7.31858
ltoes -0.719098
17
root -4.17665 17.1344 -0.979387 262.379 -89.297 -271.922
lowerback 20.1188 -2.06092 2.27853
upperback 0.175755 -2.54459 -2.31539
thorax -11.3451 -1.43574 -3.11069
lowerneck 4.21088 2.38812 -2.18661
upperneck 2.0645 3.04801 0.465704
head -0.100509 1.49128 0.456901
rclavicle -1.06909e-014 -2.38542e-015
rhumerus 69.8098 -28.2934 -166.28
rradius 9.27372
rwrist 134.322
rhand -20.7589 12.4527
rfingers 7.12502
rthumb 5.60717 -17.4531
lclavicle -1.06909e-014 -2.38542e-015
lhumerus 58.3447 14.6217 114.851
lradius 8.33077
lwrist -91.1731
lhand -14.4818 2.3722
lfingers 7.12502
lthumb 11.6645 32.0275
rfemur 4.67585 10.5934 18.1078
rtibia 24.2127
rfoot 332.347 -16.6507
rtoes -12.1061
lfemur -184.332 191.084 -198.255
ltibia 36.334
lfoot -26.7309 6.64225
ltoes -0.688498
18
root -4.17004 17.1153 -0.976336 257.876 -89.3003 -267.476
lowerback 20.363 -2.05029 2.27093
upperback 0.163334 -2.52881 -2.30556
thorax -11.4949 -1.42946 -3.09582
lowerneck 4.20469 2.38088 -2.13507
upperneck 2.09131 3.04061 0.443878
head -0.0899652 1.48772 0.442109
rclavicle -1.71203e-014 -2.18663e-014
rhumerus 69.7828 -28.1041 -166.121
rradius 9.21387
rwrist 134.202
rhand -20.7219 12.3064
rfingers 7.12502
rthumb 5.64287 -17.5985
lclavicle -1.71203e-014 -2.18663e-014
lhumerus 58.3114 14.6961 114.913
lradius 8.43623
lwrist -91.3313
lhand -14.4542 2.27067
lfingers 7.12502
lthumb 11.6912 31.9245
rfemur 4.09318 9.25839 17.6562
rtibia 25.0433
rfoot 332.843 -15.4262
rtoes -12.4208
lfemur -184.618 190.346 -198.053
ltibia 36.7966
lfoot -26.6254 5.95922
ltoes -0.669812
19
root -4.1623 17.0932 -0.972118 252.02 -89.3092 -261.658
lowerback 20.6086 -2.03235 2.28608
upperback 0.142602 -2.49648 -2.28613
thorax -11.6543 -1.41645 -3.08846
lowerneck 4.21262 2.35603 -2.11682
upperneck 2.10644 3.00792 0.425607
head -0.0856114 1.47134 0.434004
rclavicle -1.02064e-014 -5.1684e-015
rhumerus 69.7451 -27.9367 -165.935
rradius 9.16911
rwrist 134.02
rhand -20.7136 12.174
rfingers 7.12502
rthumb 5.65087 -17.7307
lclavicle -1.02064e-014 -5.1684e-015
lhumerus 58.2474 14.7722 114.99
lradius 8.58337
lwrist -91.5196
lhand -14.419 2.11546
lfingers 7.12502
lthumb 11.7251 31.7673
rfemur 3.40706 7.84246 17.1812
rtibia 26.0097
rfoot 333.304 -14.0724
rtoes -12.5311
lfemur -184.971 189.546 -197.827
ltibia 37.3384
lfoot -26.5384 5.24691
ltoes -0.670305
20
root -4.15415 17.0672 -0.968979 245.885 -89.3105 -255.542
lowerback 20.8367 -2.01968 2.31342
upperback 0.131408 -2.47044 -2.28265
thorax -11.7948 -1.4076 -3.10451
lowerneck 4.14971 2.34558 -2.08999
upperneck 2.15325 2.99675 0.430364
head -0.060623 1.46568 0.432207
rclavicle 1.42255e-015 1.47101e-014
rhumerus 69.6955 -27.7836 -165.769
rradius 9.15533
rwrist 133.776
rhand -20.7508 12.106
rfingers 7.12502
rthumb 5.61495 -17.7996
lclavicle 1.42255e-015 1.47101e-014
lhumerus 58.2216 14.8162 115.053
lradius 8.68999
lwrist -91.6182
lhand -14.3819 1.99933
lfingers 7.12502
lthumb 11.7608 31.6492
rfemur 2.63065 6.42503 16.7078
rtibia 27.1132
rfoot 333.692 -12.6674
rtoes -12.6804
lfemur -185.395 188.677 -197.567
ltibia 37.9558
lfoot -26.4595 4.43431
ltoes -0.690466
21
root -4.1451 17.0367 -0.9652 240.372 -89.2898 -250.069
lowerback 21.125 -2.00805 2.32798
upperback 0.0999766 -2.44819 -2.28171
thorax -11.9924 -1.40069 -3.11414
lowerneck 4.14663 2.33146 -2.05042
upperneck 2.17983 2.9795 0.417309
head -0.0509466 1.45708 0.422167
rclavicle 1.50797e-014 -1.43125e-014
rhumerus 69.6258 -27.71 -165.574
rradius 9.14588
rwrist 133.561
rhand -20.7903 12.0483
rfingers 7.12502
rthumb 5.5768 -17.8583
lclavicle 1.50797e-014 -1.43125e-014
lhumerus 58.1623 14.8808 115.11
lradius 8.79279
lwrist -91.6838
lhand -14.4434 1.90473
lfingers 7.12502
lthumb 11.7016 31.5579
rfemur 1.81519 4.9824 16.2175
rtibia 28.3438
rfoot 334.035 -11.2412
rtoes -12.7754
lfemur -185.847 187.733 -197.317
ltibia 38.6561
lfoot -26.3791 3.60104
ltoes -0.734459
22
root -4.13535 17.0019 -0.961703 235.148 -89.2676 -244.902
lowerback 21.4414 -2.00038 2.35551
upperback 0.0813675 -2.42807 -2.28265
thorax -12.1921 -1.39576 -3.13249
lowerneck 4.07636 2.3217 -2.06208
upperneck 2.23943 2.96752 0.444481
head -0.0219333 1.45057 0.433691
rclavicle 7.21526e-015 -1.23246e-014
rhumerus 69.5845 -27.562 -165.406
rradius 9.1118
rwrist 133.348
rhand -20.741 11.9669
rfingers 7.12502
rthumb 5.62445 -17.9385
lclavicle 7.21526e-015 -1.23246e-014
lhumerus 58.1457 14.9227 115.179
lradius 8.8497
lwrist -91.6929
lhand -14.5464 1.8273
lfingers 7.12502
lthumb 11.6022 31.4861
rfemur 0.961509 3.53075 15.7373
rtibia 29.6803
rfoot 334.335 -9.83291
rtoes -12.8372
lfemur -186.323 186.769 -197.056
ltibia 39.4389
lfoot -26.3466 2.7052
ltoes -0.803985
